<svg width="596" height="196" viewBox="0 0 596 196" fill="none" xmlns="http://www.w3.org/2000/svg">
<g clip-path="url(#clip0)">
<path d="M32 32H141.82L173.38 0.390027C171.767 0.128266 170.135 -0.00216148 168.5 2.70893e-05H30.94C22.7342 2.70893e-05 14.8645 3.25977 9.06214 9.06214C3.25977 14.8645 2.70893e-05 22.7342 2.70893e-05 30.94V168.5C-0.00216148 170.135 0.128266 171.767 0.390027 173.38L32 141.82V32Z" fill="#00BB77"/>
<path d="M163.13 163.13H53.2599L21.7 194.69C23.314 194.947 24.9456 195.077 26.58 195.08H164.14C172.346 195.08 180.215 191.82 186.018 186.018C191.82 180.216 195.08 172.346 195.08 164.14V26.5802C195.077 24.9459 194.947 23.3142 194.69 21.7002L163.13 53.2602V163.13Z" fill="#031649"/>
<path d="M83.74 132.63H132.15V84.23" fill="#031649"/>
<path d="M110.37 62.9302H61.96V111.33" fill="#00BB77"/>
<path d="M313.68 150.27V170H234.77V154.4L279.19 101.66H235.9V81.9302H311.79V97.5402L267.36 150.27H313.68Z" fill="#00BB77"/>
<path d="M395.36 150.78V170H324.63V81.9302H393.72V101.19H349.3V116H388.44V134.63H349.3V150.74L395.36 150.78Z" fill="#00BB77"/>
<path d="M447.72 146.62H434.12V170H409.2V81.9302H449.48C457.48 81.9302 464.4 83.2635 470.24 85.9302C475.785 88.2932 480.514 92.2329 483.84 97.2602C487.1 102.431 488.763 108.449 488.62 114.56C488.758 120.433 487.206 126.223 484.15 131.24C481.039 136.092 476.61 139.957 471.38 142.38L490.38 170.06H463.7L447.72 146.62ZM459.55 105C456.937 102.727 453.077 101.594 447.97 101.6H434.12V127.4H448C453.107 127.4 456.967 126.287 459.58 124.06C462.193 121.834 463.493 118.667 463.48 114.56C463.46 110.434 462.15 107.247 459.55 105Z" fill="#00BB77"/>
<path d="M521.66 165.88C514.368 162.075 508.259 156.345 503.996 149.311C499.732 142.277 497.478 134.21 497.478 125.985C497.478 117.76 499.732 109.693 503.996 102.659C508.259 95.6257 514.368 89.8951 521.66 86.0901C529.456 82.1967 538.051 80.1699 546.765 80.1699C555.479 80.1699 564.074 82.1967 571.87 86.0901C579.162 89.8951 585.271 95.6257 589.535 102.659C593.798 109.693 596.052 117.76 596.052 125.985C596.052 134.21 593.798 142.277 589.535 149.311C585.271 156.345 579.162 162.075 571.87 165.88C564.074 169.773 555.479 171.8 546.765 171.8C538.051 171.8 529.456 169.773 521.66 165.88V165.88ZM558.85 148C562.466 145.892 565.426 142.821 567.4 139.13C569.474 135.055 570.555 130.548 570.555 125.975C570.555 121.403 569.474 116.895 567.4 112.82C565.423 109.131 562.464 106.061 558.85 103.95C555.157 101.885 550.996 100.801 546.765 100.801C542.534 100.801 538.373 101.885 534.68 103.95C531.063 106.061 528.101 109.13 526.12 112.82C524.056 116.898 522.98 121.405 522.98 125.975C522.98 130.546 524.056 135.052 526.12 139.13C528.098 142.822 531.061 145.892 534.68 148C538.373 150.065 542.534 151.15 546.765 151.15C550.996 151.15 555.157 150.065 558.85 148V148Z" fill="#00BB77"/>
<path d="M264.05 53.7201H249L246.2 60.6401H235.94L251.65 25.0601H261.56L277.32 60.6401H266.85L264.05 53.7201ZM261.1 46.3001L256.53 34.9201L252 46.3001H261.1Z" fill="#031649"/>
<path d="M287.58 60.2801C285.229 59.7279 282.994 58.7629 280.98 57.4301L284.28 50.0101C285.995 51.1187 287.861 51.9741 289.82 52.5501C291.824 53.1938 293.915 53.5309 296.02 53.5501C299.88 53.5501 301.82 52.5501 301.82 50.6501C301.814 50.1473 301.65 49.6591 301.353 49.2538C301.055 48.8485 300.638 48.5465 300.16 48.3901C298.441 47.7123 296.664 47.1935 294.85 46.8401C292.574 46.3785 290.333 45.7638 288.14 45.0001C286.358 44.344 284.769 43.2505 283.52 41.8201C282.163 40.1632 281.474 38.0587 281.59 35.9201C281.557 33.8117 282.175 31.7444 283.36 30.0001C284.701 28.1401 286.547 26.7034 288.68 25.8601C291.433 24.7697 294.38 24.2525 297.34 24.3401C299.665 24.3387 301.983 24.6003 304.25 25.1201C306.356 25.5846 308.379 26.3669 310.25 27.4401L307.15 34.9101C304.145 33.1828 300.755 32.2373 297.29 32.1601C295.779 32.0515 294.268 32.3593 292.92 33.0501C292.509 33.2814 292.166 33.6165 291.926 34.0219C291.686 34.4273 291.556 34.8888 291.55 35.3601C291.56 35.8419 291.723 36.3081 292.014 36.6923C292.304 37.0765 292.709 37.3592 293.17 37.5001C294.866 38.162 296.62 38.6642 298.41 39.0001C300.695 39.46 302.944 40.0816 305.14 40.8601C306.915 41.5159 308.504 42.5935 309.77 44.0001C311.157 45.6321 311.872 47.7305 311.77 49.8701C311.79 51.9332 311.172 53.9522 310 55.6501C308.646 57.5083 306.795 58.9467 304.66 59.8001C301.91 60.9046 298.962 61.4321 296 61.3501C293.159 61.3574 290.329 60.9977 287.58 60.2801V60.2801Z" fill="#031649"/>
<path d="M344.31 26.6599C346.575 27.605 348.498 29.2175 349.823 31.2825C351.149 33.3476 351.814 35.7674 351.73 38.2199C351.815 40.6662 351.149 43.0799 349.823 45.1372C348.497 47.1946 346.573 48.7971 344.31 49.7299C341.659 50.8525 338.799 51.3979 335.92 51.3299H329.72V60.6399H319.66V25.0599H335.92C338.799 24.9918 341.659 25.5373 344.31 26.6599ZM340 42.0599C340.533 41.5789 340.952 40.9839 341.223 40.3191C341.495 39.6543 341.614 38.9368 341.57 38.2199C341.613 37.5001 341.494 36.7798 341.223 36.1118C340.951 35.4439 340.533 34.8453 340 34.3599C338.653 33.3533 336.986 32.8701 335.31 32.9999H329.72V43.4099H335.31C336.985 43.5371 338.649 43.0579 340 42.0599V42.0599Z" fill="#031649"/>
<path d="M358.59 59.4702C358.038 58.9384 357.604 58.2972 357.315 57.5877C357.026 56.8782 356.888 56.1161 356.91 55.3502C356.881 54.5862 357.012 53.8245 357.297 53.1147C357.581 52.4048 358.011 51.7628 358.56 51.2302C359.707 50.2178 361.185 49.6592 362.715 49.6592C364.245 49.6592 365.723 50.2178 366.87 51.2302C367.414 51.7653 367.84 52.4082 368.121 53.1178C368.402 53.8273 368.531 54.5878 368.5 55.3502C368.523 56.1135 368.389 56.8734 368.105 57.5823C367.821 58.2912 367.394 58.9339 366.85 59.4702C365.727 60.5126 364.252 61.0918 362.72 61.0918C361.188 61.0918 359.713 60.5126 358.59 59.4702V59.4702Z" fill="#031649"/>
<path d="M410.63 25.0601V60.6401H402.35L386.64 41.6401V60.6401H376.78V25.0601H385.07L400.77 44.0601V25.0601H410.63Z" fill="#031649"/>
<path d="M449.62 52.8601V60.6401H421.05V25.0601H449V32.8301H431V38.8301H446.8V46.3501H431V52.8601H449.62Z" fill="#031649"/>
<path d="M466.09 33H455.16V25H487V33H476.15V60.6H466.09V33Z" fill="#031649"/>
</g>
<defs>
<clipPath id="clip0">
<rect width="595.72" height="195.08" fill="white"/>
</clipPath>
</defs>
</svg>
